<svg width="340" height="340" viewBox="0 0 340 340" fill="none" xmlns="http://www.w3.org/2000/svg">
<rect x="27.5" y="27.5" width="285" height="285" rx="12.5" fill="#121212" stroke="#0099FF" stroke-width="15"/>
<path d="M70.0992 202.6C70.8992 203.133 73.4326 204.267 77.6992 206C81.9659 207.733 86.9659 208.6 92.6992 208.6C96.8326 208.6 100.166 207.933 102.699 206.6C105.233 205.133 107.099 202.933 108.299 200C109.633 197.067 110.499 193.267 110.899 188.6C111.433 183.8 111.699 178 111.699 171.2V99H150.699V171.2C150.699 182 150.033 191.8 148.699 200.6C147.499 209.4 144.966 217 141.099 223.4C137.233 229.8 131.433 234.733 123.699 238.2C115.966 241.533 105.633 243.2 92.6992 243.2C86.5659 243.2 80.9659 242.467 75.8992 241C70.8326 239.533 66.1659 237.333 61.8992 234.4L70.0992 202.6ZM173.509 241V99H212.509V207H276.909V241H173.509Z" fill="#0099FF"/>
</svg>
